<?xml version="1.0" encoding="UTF-8" standalone="no"?>
<!DOCTYPE svg PUBLIC "-//W3C//DTD SVG 1.1//EN"
 "http://www.w3.org/Graphics/SVG/1.1/DTD/svg11.dtd">
<!-- Generated by graphviz version 2.40.1 (20161225.0304)
 -->
<!-- Title: G Pages: 1 -->
<svg width="218pt" height="188pt"
 viewBox="0.00 0.00 218.34 188.00" xmlns="http://www.w3.org/2000/svg" xmlns:xlink="http://www.w3.org/1999/xlink">
<g id="graph0" class="graph" transform="scale(1 1) rotate(0) translate(4 184)">
<title>G</title>
<polygon fill="#ffffff" stroke="transparent" points="-4,4 -4,-184 214.3417,-184 214.3417,4 -4,4"/>
<!-- D -->
<g id="node1" class="node">
<title>D</title>
<ellipse fill="none" stroke="#c0c0c0" cx="44.4962" cy="-162" rx="44.4923" ry="18"/>
<text text-anchor="middle" x="44.4962" y="-157.8" font-family="Times,serif" font-size="14.00" fill="#000000">Difficulty</text>
</g>
<!-- G -->
<g id="node2" class="node">
<title>G</title>
<ellipse fill="none" stroke="#c0c0c0" cx="63.4962" cy="-90" rx="31.9219" ry="18"/>
<text text-anchor="middle" x="63.4962" y="-85.8" font-family="Times,serif" font-size="14.00" fill="#000000">Grade</text>
</g>
<!-- D&#45;&gt;G -->
<g id="edge1" class="edge">
<title>D&#45;&gt;G</title>
<path fill="none" stroke="#000000" d="M49.2907,-143.8314C51.3766,-135.9266 53.8676,-126.4872 56.1768,-117.7365"/>
<polygon fill="#000000" stroke="#000000" points="59.6015,-118.4755 58.769,-107.9134 52.8332,-116.6894 59.6015,-118.4755"/>
</g>
<!-- L -->
<g id="node4" class="node">
<title>L</title>
<ellipse fill="none" stroke="#c0c0c0" cx="63.4962" cy="-18" rx="31.4375" ry="18"/>
<text text-anchor="middle" x="63.4962" y="-13.8" font-family="Times,serif" font-size="14.00" fill="#000000">Letter</text>
</g>
<!-- G&#45;&gt;L -->
<g id="edge3" class="edge">
<title>G&#45;&gt;L</title>
<path fill="none" stroke="#000000" d="M63.4962,-71.8314C63.4962,-64.131 63.4962,-54.9743 63.4962,-46.4166"/>
<polygon fill="#000000" stroke="#000000" points="66.9963,-46.4132 63.4962,-36.4133 59.9963,-46.4133 66.9963,-46.4132"/>
</g>
<!-- I -->
<g id="node3" class="node">
<title>I</title>
<ellipse fill="none" stroke="#c0c0c0" cx="158.4962" cy="-162" rx="51.6916" ry="18"/>
<text text-anchor="middle" x="158.4962" y="-157.8" font-family="Times,serif" font-size="14.00" fill="#000000">Intelligence</text>
</g>
<!-- I&#45;&gt;G -->
<g id="edge2" class="edge">
<title>I&#45;&gt;G</title>
<path fill="none" stroke="#000000" d="M136.4625,-145.3008C122.8082,-134.9523 105.1679,-121.5828 90.6525,-110.5817"/>
<polygon fill="#000000" stroke="#000000" points="92.6048,-107.6697 82.521,-104.4188 88.3766,-113.2485 92.6048,-107.6697"/>
</g>
<!-- S -->
<g id="node5" class="node">
<title>S</title>
<ellipse fill="none" stroke="#c0c0c0" cx="158.4962" cy="-90" rx="27" ry="18"/>
<text text-anchor="middle" x="158.4962" y="-85.8" font-family="Times,serif" font-size="14.00" fill="#000000">SAT</text>
</g>
<!-- I&#45;&gt;S -->
<g id="edge4" class="edge">
<title>I&#45;&gt;S</title>
<path fill="none" stroke="#000000" d="M158.4962,-143.8314C158.4962,-136.131 158.4962,-126.9743 158.4962,-118.4166"/>
<polygon fill="#000000" stroke="#000000" points="161.9963,-118.4132 158.4962,-108.4133 154.9963,-118.4133 161.9963,-118.4132"/>
</g>
</g>
</svg>
