<?xml version="1.0" encoding="UTF-8" standalone="no"?>
<!DOCTYPE svg PUBLIC "-//W3C//DTD SVG 1.1//EN"
 "http://www.w3.org/Graphics/SVG/1.1/DTD/svg11.dtd">
<!-- Generated by graphviz version 2.40.1 (20161225.0304)
 -->
<!-- Title: G Pages: 1 -->
<svg width="674pt" height="456pt"
 viewBox="0.00 0.00 673.50 456.00" xmlns="http://www.w3.org/2000/svg" xmlns:xlink="http://www.w3.org/1999/xlink">
<g id="graph0" class="graph" transform="scale(1 1) rotate(0) translate(4 452)">
<title>G</title>
<polygon fill="#ffffff" stroke="transparent" points="-4,4 -4,-452 669.5,-452 669.5,4 -4,4"/>
<!-- D -->
<g id="node1" class="node">
<title>D</title>
<ellipse fill="none" stroke="#c0c0c0" cx="584" cy="-280" rx="44.4923" ry="18"/>
<text text-anchor="middle" x="584" y="-275.8" font-family="Times,serif" font-size="14.00" fill="#000000">Difficulty</text>
</g>
<!-- G -->
<g id="node2" class="node">
<title>G</title>
<ellipse fill="none" stroke="#c0c0c0" cx="365" cy="-126" rx="31.9219" ry="18"/>
<text text-anchor="middle" x="365" y="-121.8" font-family="Times,serif" font-size="14.00" fill="#000000">Grade</text>
</g>
<!-- D&#45;&gt;G -->
<g id="edge1" class="edge">
<title>D&#45;&gt;G</title>
<path fill="none" stroke="#000000" d="M572.2673,-262.3963C562.4267,-248.5695 547.383,-229.4658 531,-216 490.4888,-182.7023 435.7922,-155.8775 400.4545,-140.437"/>
<polygon fill="#000000" stroke="#000000" points="401.5983,-137.1191 391.0287,-136.3879 398.8354,-143.5508 401.5983,-137.1191"/>
</g>
<!-- L -->
<g id="node4" class="node">
<title>L</title>
<ellipse fill="none" stroke="#c0c0c0" cx="236" cy="-18" rx="31.4375" ry="18"/>
<text text-anchor="middle" x="236" y="-13.8" font-family="Times,serif" font-size="14.00" fill="#000000">Letter</text>
</g>
<!-- G&#45;&gt;L -->
<g id="edge3" class="edge">
<title>G&#45;&gt;L</title>
<path fill="none" stroke="#000000" d="M347.0631,-110.9831C324.8241,-92.3644 286.7717,-60.5066 261.5032,-39.3515"/>
<polygon fill="#000000" stroke="#000000" points="263.6989,-36.6251 253.7846,-32.8894 259.2054,-41.9925 263.6989,-36.6251"/>
</g>
<!-- I -->
<g id="node3" class="node">
<title>I</title>
<ellipse fill="none" stroke="#c0c0c0" cx="238" cy="-280" rx="51.6916" ry="18"/>
<text text-anchor="middle" x="238" y="-275.8" font-family="Times,serif" font-size="14.00" fill="#000000">Intelligence</text>
</g>
<!-- I&#45;&gt;G -->
<g id="edge2" class="edge">
<title>I&#45;&gt;G</title>
<path fill="none" stroke="#000000" d="M252.3216,-262.6336C274.9503,-235.1941 319.0476,-181.7218 344.8564,-150.4261"/>
<polygon fill="#000000" stroke="#000000" points="347.6467,-152.5436 351.3089,-142.6018 342.2463,-148.09 347.6467,-152.5436"/>
</g>
<!-- S -->
<g id="node5" class="node">
<title>S</title>
<ellipse fill="none" stroke="#c0c0c0" cx="238" cy="-126" rx="27" ry="18"/>
<text text-anchor="middle" x="238" y="-121.8" font-family="Times,serif" font-size="14.00" fill="#000000">SAT</text>
</g>
<!-- I&#45;&gt;S -->
<g id="edge4" class="edge">
<title>I&#45;&gt;S</title>
<path fill="none" stroke="#000000" d="M238,-261.7294C238,-235.2167 238,-185.8331 238,-154.507"/>
<polygon fill="#000000" stroke="#000000" points="241.5001,-154.2468 238,-144.2468 234.5001,-154.2468 241.5001,-154.2468"/>
</g>
<!-- cpd_D -->
<g id="node6" class="node">
<title>cpd_D</title>
<polygon fill="none" stroke="#c0c0c0" points="511,-424 511,-444 658,-444 658,-424 511,-424"/>
<text text-anchor="start" x="557.2793" y="-429.8" font-family="Times,serif" font-size="14.00" fill="#000000">Difficulty</text>
<polygon fill="none" stroke="#c0c0c0" points="511,-404 511,-424 524,-424 524,-404 511,-404"/>
<polygon fill="none" stroke="#c0c0c0" points="524,-404 524,-424 591,-424 591,-404 524,-404"/>
<text text-anchor="start" x="526.981" y="-409.8" font-family="Times,serif" font-size="14.00" fill="#000000">Easy (d_0)</text>
<polygon fill="none" stroke="#c0c0c0" points="591,-404 591,-424 658,-424 658,-404 591,-404"/>
<text text-anchor="start" x="593.5947" y="-409.8" font-family="Times,serif" font-size="14.00" fill="#000000">Hard (d_1)</text>
<polygon fill="none" stroke="#c0c0c0" points="511,-384 511,-404 524,-404 524,-384 511,-384"/>
<text text-anchor="start" x="514" y="-389.8" font-family="Times,serif" font-size="14.00" fill="#000000">d</text>
<polygon fill="none" stroke="#c0c0c0" points="524,-384 524,-404 591,-404 591,-384 524,-384"/>
<text text-anchor="start" x="548.75" y="-389.8" font-family="Times,serif" font-size="14.00" fill="#000000">0.4</text>
<polygon fill="none" stroke="#c0c0c0" points="591,-384 591,-404 658,-404 658,-384 591,-384"/>
<text text-anchor="start" x="615.75" y="-389.8" font-family="Times,serif" font-size="14.00" fill="#000000">0.6</text>
</g>
<!-- cpd_D&#45;&gt;D -->
<!-- cpd_I -->
<g id="node7" class="node">
<title>cpd_I</title>
<polygon fill="none" stroke="#c0c0c0" points="151,-424 151,-444 325,-444 325,-424 151,-424"/>
<text text-anchor="start" x="204.9619" y="-429.8" font-family="Times,serif" font-size="14.00" fill="#000000">Intelligence</text>
<polygon fill="none" stroke="#c0c0c0" points="151,-404 151,-424 160,-424 160,-404 151,-404"/>
<polygon fill="none" stroke="#c0c0c0" points="160,-404 160,-424 231,-424 231,-404 160,-404"/>
<text text-anchor="start" x="162.6431" y="-409.8" font-family="Times,serif" font-size="14.00" fill="#000000">Dumb (i_0)</text>
<polygon fill="none" stroke="#c0c0c0" points="231,-404 231,-424 325,-424 325,-404 231,-404"/>
<text text-anchor="start" x="233.874" y="-409.8" font-family="Times,serif" font-size="14.00" fill="#000000">Intelligent (i_1)</text>
<polygon fill="none" stroke="#c0c0c0" points="151,-384 151,-404 160,-404 160,-384 151,-384"/>
<text text-anchor="start" x="153.5552" y="-389.8" font-family="Times,serif" font-size="14.00" fill="#000000">i</text>
<polygon fill="none" stroke="#c0c0c0" points="160,-384 160,-404 231,-404 231,-384 160,-384"/>
<text text-anchor="start" x="186.75" y="-389.8" font-family="Times,serif" font-size="14.00" fill="#000000">0.7</text>
<polygon fill="none" stroke="#c0c0c0" points="231,-384 231,-404 325,-404 325,-384 231,-384"/>
<text text-anchor="start" x="269.25" y="-389.8" font-family="Times,serif" font-size="14.00" fill="#000000">0.3</text>
</g>
<!-- cpd_I&#45;&gt;I -->
<!-- cpd_G -->
<g id="node8" class="node">
<title>cpd_G</title>
<polygon fill="none" stroke="#c0c0c0" points="316,-320 316,-340 514,-340 514,-320 316,-320"/>
<text text-anchor="start" x="397.8999" y="-325.8" font-family="Times,serif" font-size="14.00" fill="#000000">Grade</text>
<polygon fill="none" stroke="#c0c0c0" points="316,-300 316,-320 367,-320 367,-300 316,-300"/>
<polygon fill="none" stroke="#c0c0c0" points="367,-300 367,-320 416,-320 416,-300 367,-300"/>
<text text-anchor="start" x="369.9155" y="-305.8" font-family="Times,serif" font-size="14.00" fill="#000000">A (g_0)</text>
<polygon fill="none" stroke="#c0c0c0" points="416,-300 416,-320 465,-320 465,-300 416,-300"/>
<text text-anchor="start" x="418.9189" y="-305.8" font-family="Times,serif" font-size="14.00" fill="#000000">B (g_1)</text>
<polygon fill="none" stroke="#c0c0c0" points="465,-300 465,-320 514,-320 514,-300 465,-300"/>
<text text-anchor="start" x="467.9189" y="-305.8" font-family="Times,serif" font-size="14.00" fill="#000000">C (g_2)</text>
<polygon fill="none" stroke="#c0c0c0" points="316,-280 316,-300 367,-300 367,-280 316,-280"/>
<text text-anchor="start" x="318.5552" y="-285.8" font-family="Times,serif" font-size="14.00" fill="#000000">i_0, d_0</text>
<polygon fill="none" stroke="#c0c0c0" points="367,-280 367,-300 416,-300 416,-280 367,-280"/>
<text text-anchor="start" x="382.75" y="-285.8" font-family="Times,serif" font-size="14.00" fill="#000000">0.3</text>
<polygon fill="none" stroke="#c0c0c0" points="416,-280 416,-300 465,-300 465,-280 416,-280"/>
<text text-anchor="start" x="431.75" y="-285.8" font-family="Times,serif" font-size="14.00" fill="#000000">0.4</text>
<polygon fill="none" stroke="#c0c0c0" points="465,-280 465,-300 514,-300 514,-280 465,-280"/>
<text text-anchor="start" x="480.75" y="-285.8" font-family="Times,serif" font-size="14.00" fill="#000000">0.3</text>
<polygon fill="none" stroke="#c0c0c0" points="316,-260 316,-280 367,-280 367,-260 316,-260"/>
<text text-anchor="start" x="318.5552" y="-265.8" font-family="Times,serif" font-size="14.00" fill="#000000">i_0, d_1</text>
<polygon fill="none" stroke="#c0c0c0" points="367,-260 367,-280 416,-280 416,-260 367,-260"/>
<text text-anchor="start" x="379.25" y="-265.8" font-family="Times,serif" font-size="14.00" fill="#000000">0.05</text>
<polygon fill="none" stroke="#c0c0c0" points="416,-260 416,-280 465,-280 465,-260 416,-260"/>
<text text-anchor="start" x="428.25" y="-265.8" font-family="Times,serif" font-size="14.00" fill="#000000">0.25</text>
<polygon fill="none" stroke="#c0c0c0" points="465,-260 465,-280 514,-280 514,-260 465,-260"/>
<text text-anchor="start" x="480.75" y="-265.8" font-family="Times,serif" font-size="14.00" fill="#000000">0.7</text>
<polygon fill="none" stroke="#c0c0c0" points="316,-240 316,-260 367,-260 367,-240 316,-240"/>
<text text-anchor="start" x="318.5552" y="-245.8" font-family="Times,serif" font-size="14.00" fill="#000000">i_1, d_0</text>
<polygon fill="none" stroke="#c0c0c0" points="367,-240 367,-260 416,-260 416,-240 367,-240"/>
<text text-anchor="start" x="382.75" y="-245.8" font-family="Times,serif" font-size="14.00" fill="#000000">0.9</text>
<polygon fill="none" stroke="#c0c0c0" points="416,-240 416,-260 465,-260 465,-240 416,-240"/>
<text text-anchor="start" x="428.25" y="-245.8" font-family="Times,serif" font-size="14.00" fill="#000000">0.08</text>
<polygon fill="none" stroke="#c0c0c0" points="465,-240 465,-260 514,-260 514,-240 465,-240"/>
<text text-anchor="start" x="477.25" y="-245.8" font-family="Times,serif" font-size="14.00" fill="#000000">0.02</text>
<polygon fill="none" stroke="#c0c0c0" points="316,-220 316,-240 367,-240 367,-220 316,-220"/>
<text text-anchor="start" x="318.5552" y="-225.8" font-family="Times,serif" font-size="14.00" fill="#000000">i_1, d_1</text>
<polygon fill="none" stroke="#c0c0c0" points="367,-220 367,-240 416,-240 416,-220 367,-220"/>
<text text-anchor="start" x="382.75" y="-225.8" font-family="Times,serif" font-size="14.00" fill="#000000">0.5</text>
<polygon fill="none" stroke="#c0c0c0" points="416,-220 416,-240 465,-240 465,-220 416,-220"/>
<text text-anchor="start" x="431.75" y="-225.8" font-family="Times,serif" font-size="14.00" fill="#000000">0.3</text>
<polygon fill="none" stroke="#c0c0c0" points="465,-220 465,-240 514,-240 514,-220 465,-220"/>
<text text-anchor="start" x="480.75" y="-225.8" font-family="Times,serif" font-size="14.00" fill="#000000">0.2</text>
</g>
<!-- cpd_G&#45;&gt;G -->
<!-- cpd_L -->
<g id="node9" class="node">
<title>cpd_L</title>
<polygon fill="none" stroke="#c0c0c0" points="32,-156 32,-176 185,-176 185,-156 32,-156"/>
<text text-anchor="start" x="91.7896" y="-161.8" font-family="Times,serif" font-size="14.00" fill="#000000">Letter</text>
<polygon fill="none" stroke="#c0c0c0" points="32,-136 32,-156 59,-156 59,-136 32,-136"/>
<polygon fill="none" stroke="#c0c0c0" points="59,-136 59,-156 118,-156 118,-136 59,-136"/>
<text text-anchor="start" x="61.8672" y="-141.8" font-family="Times,serif" font-size="14.00" fill="#000000">Bad (l_0)</text>
<polygon fill="none" stroke="#c0c0c0" points="118,-136 118,-156 185,-156 185,-136 118,-136"/>
<text text-anchor="start" x="120.5879" y="-141.8" font-family="Times,serif" font-size="14.00" fill="#000000">Good (l_1)</text>
<polygon fill="none" stroke="#c0c0c0" points="32,-116 32,-136 59,-136 59,-116 32,-116"/>
<text text-anchor="start" x="35" y="-121.8" font-family="Times,serif" font-size="14.00" fill="#000000">g_0</text>
<polygon fill="none" stroke="#c0c0c0" points="59,-116 59,-136 118,-136 118,-116 59,-116"/>
<text text-anchor="start" x="79.75" y="-121.8" font-family="Times,serif" font-size="14.00" fill="#000000">0.1</text>
<polygon fill="none" stroke="#c0c0c0" points="118,-116 118,-136 185,-136 185,-116 118,-116"/>
<text text-anchor="start" x="142.75" y="-121.8" font-family="Times,serif" font-size="14.00" fill="#000000">0.9</text>
<polygon fill="none" stroke="#c0c0c0" points="32,-96 32,-116 59,-116 59,-96 32,-96"/>
<text text-anchor="start" x="35" y="-101.8" font-family="Times,serif" font-size="14.00" fill="#000000">g_1</text>
<polygon fill="none" stroke="#c0c0c0" points="59,-96 59,-116 118,-116 118,-96 59,-96"/>
<text text-anchor="start" x="79.75" y="-101.8" font-family="Times,serif" font-size="14.00" fill="#000000">0.4</text>
<polygon fill="none" stroke="#c0c0c0" points="118,-96 118,-116 185,-116 185,-96 118,-96"/>
<text text-anchor="start" x="142.75" y="-101.8" font-family="Times,serif" font-size="14.00" fill="#000000">0.6</text>
<polygon fill="none" stroke="#c0c0c0" points="32,-76 32,-96 59,-96 59,-76 32,-76"/>
<text text-anchor="start" x="35" y="-81.8" font-family="Times,serif" font-size="14.00" fill="#000000">g_2</text>
<polygon fill="none" stroke="#c0c0c0" points="59,-76 59,-96 118,-96 118,-76 59,-76"/>
<text text-anchor="start" x="76.25" y="-81.8" font-family="Times,serif" font-size="14.00" fill="#000000">0.99</text>
<polygon fill="none" stroke="#c0c0c0" points="118,-76 118,-96 185,-96 185,-76 118,-76"/>
<text text-anchor="start" x="139.25" y="-81.8" font-family="Times,serif" font-size="14.00" fill="#000000">0.01</text>
</g>
<!-- cpd_L&#45;&gt;L -->
<!-- cpd_S -->
<g id="node10" class="node">
<title>cpd_S</title>
<polygon fill="none" stroke="#c0c0c0" points="8,-300 8,-320 160,-320 160,-300 8,-300"/>
<text text-anchor="start" x="71.5518" y="-305.8" font-family="Times,serif" font-size="14.00" fill="#000000">SAT</text>
<polygon fill="none" stroke="#c0c0c0" points="8,-280 8,-300 31,-300 31,-280 8,-280"/>
<polygon fill="none" stroke="#c0c0c0" points="31,-280 31,-300 91,-300 91,-280 31,-280"/>
<text text-anchor="start" x="33.5879" y="-285.8" font-family="Times,serif" font-size="14.00" fill="#000000">Bad (s_0)</text>
<polygon fill="none" stroke="#c0c0c0" points="91,-280 91,-300 160,-300 160,-280 91,-280"/>
<text text-anchor="start" x="93.8086" y="-285.8" font-family="Times,serif" font-size="14.00" fill="#000000">Good (s_1)</text>
<polygon fill="none" stroke="#c0c0c0" points="8,-260 8,-280 31,-280 31,-260 8,-260"/>
<text text-anchor="start" x="10.5552" y="-265.8" font-family="Times,serif" font-size="14.00" fill="#000000">i_0</text>
<polygon fill="none" stroke="#c0c0c0" points="31,-260 31,-280 91,-280 91,-260 31,-260"/>
<text text-anchor="start" x="48.75" y="-265.8" font-family="Times,serif" font-size="14.00" fill="#000000">0.95</text>
<polygon fill="none" stroke="#c0c0c0" points="91,-260 91,-280 160,-280 160,-260 91,-260"/>
<text text-anchor="start" x="113.25" y="-265.8" font-family="Times,serif" font-size="14.00" fill="#000000">0.05</text>
<polygon fill="none" stroke="#c0c0c0" points="8,-240 8,-260 31,-260 31,-240 8,-240"/>
<text text-anchor="start" x="10.5552" y="-245.8" font-family="Times,serif" font-size="14.00" fill="#000000">i_1</text>
<polygon fill="none" stroke="#c0c0c0" points="31,-240 31,-260 91,-260 91,-240 31,-240"/>
<text text-anchor="start" x="52.25" y="-245.8" font-family="Times,serif" font-size="14.00" fill="#000000">0.2</text>
<polygon fill="none" stroke="#c0c0c0" points="91,-240 91,-260 160,-260 160,-240 91,-240"/>
<text text-anchor="start" x="116.75" y="-245.8" font-family="Times,serif" font-size="14.00" fill="#000000">0.8</text>
</g>
<!-- cpd_S&#45;&gt;S -->
</g>
</svg>
