<?xml version="1.0" encoding="UTF-8" standalone="no"?>
<!DOCTYPE svg PUBLIC "-//W3C//DTD SVG 1.1//EN"
 "http://www.w3.org/Graphics/SVG/1.1/DTD/svg11.dtd">
<!-- Generated by graphviz version 2.40.1 (20161225.0304)
 -->
<!-- Title: G Pages: 1 -->
<svg width="528pt" height="358pt"
 viewBox="0.00 0.00 527.96 358.00" xmlns="http://www.w3.org/2000/svg" xmlns:xlink="http://www.w3.org/1999/xlink">
<g id="graph0" class="graph" transform="scale(1 1) rotate(0) translate(4 354)">
<title>G</title>
<polygon fill="#ffffff" stroke="transparent" points="-4,4 -4,-354 523.9589,-354 523.9589,4 -4,4"/>
<!-- D -->
<g id="node1" class="node">
<title>D</title>
<ellipse fill="none" stroke="#c0c0c0" cx="102.0365" cy="-332" rx="44.4923" ry="18"/>
<text text-anchor="middle" x="102.0365" y="-327.8" font-family="Times,serif" font-size="14.00" fill="#000000">Difficulty</text>
</g>
<!-- G -->
<g id="node2" class="node">
<title>G</title>
<ellipse fill="none" stroke="#c0c0c0" cx="200.0365" cy="-254.5" rx="31.9219" ry="18"/>
<text text-anchor="middle" x="200.0365" y="-250.3" font-family="Times,serif" font-size="14.00" fill="#000000">Grade</text>
</g>
<!-- D&#45;&gt;G -->
<g id="edge1" class="edge">
<title>D&#45;&gt;G</title>
<path fill="none" stroke="#000000" d="M122.3422,-315.9419C137.1422,-304.2378 157.3347,-288.2693 173.4246,-275.5451"/>
<polygon fill="#000000" stroke="#000000" points="175.7416,-278.175 181.4143,-269.2267 171.3996,-272.6844 175.7416,-278.175"/>
</g>
<!-- cpd_D -->
<g id="node6" class="node">
<title>cpd_D</title>
<polygon fill="none" stroke="#c0c0c0" points="62.0365,-260.5 62.0365,-273.5 143.0365,-273.5 143.0365,-260.5 62.0365,-260.5"/>
<text text-anchor="start" x="88.9262" y="-264.9" font-family="Times,serif" font-size="7.00" fill="#000000">Difficulty</text>
<polygon fill="none" stroke="#c0c0c0" points="62.0365,-247.5 62.0365,-260.5 71.0365,-260.5 71.0365,-247.5 62.0365,-247.5"/>
<polygon fill="none" stroke="#c0c0c0" points="71.0365,-247.5 71.0365,-260.5 107.0365,-260.5 107.0365,-247.5 71.0365,-247.5"/>
<text text-anchor="start" x="73.777" y="-251.9" font-family="Times,serif" font-size="7.00" fill="#000000">Easy (d_0)</text>
<polygon fill="none" stroke="#c0c0c0" points="107.0365,-247.5 107.0365,-260.5 143.0365,-260.5 143.0365,-247.5 107.0365,-247.5"/>
<text text-anchor="start" x="109.5839" y="-251.9" font-family="Times,serif" font-size="7.00" fill="#000000">Hard (d_1)</text>
<polygon fill="none" stroke="#c0c0c0" points="62.0365,-234.5 62.0365,-247.5 71.0365,-247.5 71.0365,-234.5 62.0365,-234.5"/>
<text text-anchor="start" x="64.7865" y="-238.9" font-family="Times,serif" font-size="7.00" fill="#000000">d</text>
<polygon fill="none" stroke="#c0c0c0" points="71.0365,-234.5 71.0365,-247.5 107.0365,-247.5 107.0365,-234.5 71.0365,-234.5"/>
<text text-anchor="start" x="84.6615" y="-238.9" font-family="Times,serif" font-size="7.00" fill="#000000">0.4</text>
<polygon fill="none" stroke="#c0c0c0" points="107.0365,-234.5 107.0365,-247.5 143.0365,-247.5 143.0365,-234.5 107.0365,-234.5"/>
<text text-anchor="start" x="120.6615" y="-238.9" font-family="Times,serif" font-size="7.00" fill="#000000">0.6</text>
</g>
<!-- D&#45;&gt;cpd_D -->
<!-- D&#45;&gt;cpd_D -->
<!-- L -->
<g id="node4" class="node">
<title>L</title>
<ellipse fill="none" stroke="#c0c0c0" cx="88.0365" cy="-152" rx="31.4375" ry="18"/>
<text text-anchor="middle" x="88.0365" y="-147.8" font-family="Times,serif" font-size="14.00" fill="#000000">Letter</text>
</g>
<!-- G&#45;&gt;L -->
<g id="edge3" class="edge">
<title>G&#45;&gt;L</title>
<path fill="none" stroke="#000000" d="M181.1208,-239.9809C166.2573,-228.3115 145.2611,-211.2429 128.0365,-195 121.7777,-189.0979 115.2994,-182.4153 109.4262,-176.1078"/>
<polygon fill="#000000" stroke="#000000" points="111.7075,-173.4166 102.3725,-168.4059 106.5453,-178.1443 111.7075,-173.4166"/>
</g>
<!-- cpd_G -->
<g id="node8" class="node">
<title>cpd_G</title>
<polygon fill="none" stroke="#c0c0c0" points="146.0365,-178 146.0365,-191 255.0365,-191 255.0365,-178 146.0365,-178"/>
<text text-anchor="start" x="191.9865" y="-182.4" font-family="Times,serif" font-size="7.00" fill="#000000">Grade</text>
<polygon fill="none" stroke="#c0c0c0" points="146.0365,-165 146.0365,-178 174.0365,-178 174.0365,-165 146.0365,-165"/>
<polygon fill="none" stroke="#c0c0c0" points="174.0365,-165 174.0365,-178 201.0365,-178 201.0365,-165 174.0365,-165"/>
<text text-anchor="start" x="176.7443" y="-169.4" font-family="Times,serif" font-size="7.00" fill="#000000">A (g_0)</text>
<polygon fill="none" stroke="#c0c0c0" points="201.0365,-165 201.0365,-178 228.0365,-178 228.0365,-165 201.0365,-165"/>
<text text-anchor="start" x="203.746" y="-169.4" font-family="Times,serif" font-size="7.00" fill="#000000">B (g_1)</text>
<polygon fill="none" stroke="#c0c0c0" points="228.0365,-165 228.0365,-178 255.0365,-178 255.0365,-165 228.0365,-165"/>
<text text-anchor="start" x="230.746" y="-169.4" font-family="Times,serif" font-size="7.00" fill="#000000">C (g_2)</text>
<polygon fill="none" stroke="#c0c0c0" points="146.0365,-152 146.0365,-165 174.0365,-165 174.0365,-152 146.0365,-152"/>
<text text-anchor="start" x="148.5641" y="-156.4" font-family="Times,serif" font-size="7.00" fill="#000000">i_0, d_0</text>
<polygon fill="none" stroke="#c0c0c0" points="174.0365,-152 174.0365,-165 201.0365,-165 201.0365,-152 174.0365,-152"/>
<text text-anchor="start" x="183.1615" y="-156.4" font-family="Times,serif" font-size="7.00" fill="#000000">0.3</text>
<polygon fill="none" stroke="#c0c0c0" points="201.0365,-152 201.0365,-165 228.0365,-165 228.0365,-152 201.0365,-152"/>
<text text-anchor="start" x="210.1615" y="-156.4" font-family="Times,serif" font-size="7.00" fill="#000000">0.4</text>
<polygon fill="none" stroke="#c0c0c0" points="228.0365,-152 228.0365,-165 255.0365,-165 255.0365,-152 228.0365,-152"/>
<text text-anchor="start" x="237.1615" y="-156.4" font-family="Times,serif" font-size="7.00" fill="#000000">0.3</text>
<polygon fill="none" stroke="#c0c0c0" points="146.0365,-139 146.0365,-152 174.0365,-152 174.0365,-139 146.0365,-139"/>
<text text-anchor="start" x="148.5641" y="-143.4" font-family="Times,serif" font-size="7.00" fill="#000000">i_0, d_1</text>
<polygon fill="none" stroke="#c0c0c0" points="174.0365,-139 174.0365,-152 201.0365,-152 201.0365,-139 174.0365,-139"/>
<text text-anchor="start" x="181.4115" y="-143.4" font-family="Times,serif" font-size="7.00" fill="#000000">0.05</text>
<polygon fill="none" stroke="#c0c0c0" points="201.0365,-139 201.0365,-152 228.0365,-152 228.0365,-139 201.0365,-139"/>
<text text-anchor="start" x="208.4115" y="-143.4" font-family="Times,serif" font-size="7.00" fill="#000000">0.25</text>
<polygon fill="none" stroke="#c0c0c0" points="228.0365,-139 228.0365,-152 255.0365,-152 255.0365,-139 228.0365,-139"/>
<text text-anchor="start" x="237.1615" y="-143.4" font-family="Times,serif" font-size="7.00" fill="#000000">0.7</text>
<polygon fill="none" stroke="#c0c0c0" points="146.0365,-126 146.0365,-139 174.0365,-139 174.0365,-126 146.0365,-126"/>
<text text-anchor="start" x="148.5641" y="-130.4" font-family="Times,serif" font-size="7.00" fill="#000000">i_1, d_0</text>
<polygon fill="none" stroke="#c0c0c0" points="174.0365,-126 174.0365,-139 201.0365,-139 201.0365,-126 174.0365,-126"/>
<text text-anchor="start" x="183.1615" y="-130.4" font-family="Times,serif" font-size="7.00" fill="#000000">0.9</text>
<polygon fill="none" stroke="#c0c0c0" points="201.0365,-126 201.0365,-139 228.0365,-139 228.0365,-126 201.0365,-126"/>
<text text-anchor="start" x="208.4115" y="-130.4" font-family="Times,serif" font-size="7.00" fill="#000000">0.08</text>
<polygon fill="none" stroke="#c0c0c0" points="228.0365,-126 228.0365,-139 255.0365,-139 255.0365,-126 228.0365,-126"/>
<text text-anchor="start" x="235.4115" y="-130.4" font-family="Times,serif" font-size="7.00" fill="#000000">0.02</text>
<polygon fill="none" stroke="#c0c0c0" points="146.0365,-113 146.0365,-126 174.0365,-126 174.0365,-113 146.0365,-113"/>
<text text-anchor="start" x="148.5641" y="-117.4" font-family="Times,serif" font-size="7.00" fill="#000000">i_1, d_1</text>
<polygon fill="none" stroke="#c0c0c0" points="174.0365,-113 174.0365,-126 201.0365,-126 201.0365,-113 174.0365,-113"/>
<text text-anchor="start" x="183.1615" y="-117.4" font-family="Times,serif" font-size="7.00" fill="#000000">0.5</text>
<polygon fill="none" stroke="#c0c0c0" points="201.0365,-113 201.0365,-126 228.0365,-126 228.0365,-113 201.0365,-113"/>
<text text-anchor="start" x="210.1615" y="-117.4" font-family="Times,serif" font-size="7.00" fill="#000000">0.3</text>
<polygon fill="none" stroke="#c0c0c0" points="228.0365,-113 228.0365,-126 255.0365,-126 255.0365,-113 228.0365,-113"/>
<text text-anchor="start" x="237.1615" y="-117.4" font-family="Times,serif" font-size="7.00" fill="#000000">0.2</text>
</g>
<!-- G&#45;&gt;cpd_G -->
<!-- G&#45;&gt;cpd_G -->
<!-- I -->
<g id="node3" class="node">
<title>I</title>
<ellipse fill="none" stroke="#c0c0c0" cx="432.0365" cy="-332" rx="51.6916" ry="18"/>
<text text-anchor="middle" x="432.0365" y="-327.8" font-family="Times,serif" font-size="14.00" fill="#000000">Intelligence</text>
</g>
<!-- I&#45;&gt;G -->
<g id="edge2" class="edge">
<title>I&#45;&gt;G</title>
<path fill="none" stroke="#000000" d="M394.5039,-319.4622C351.1964,-304.9952 280.4194,-281.352 237.2482,-266.9306"/>
<polygon fill="#000000" stroke="#000000" points="238.2821,-263.5859 227.6883,-263.7371 236.0642,-270.2253 238.2821,-263.5859"/>
</g>
<!-- S -->
<g id="node5" class="node">
<title>S</title>
<ellipse fill="none" stroke="#c0c0c0" cx="331.0365" cy="-254.5" rx="27" ry="18"/>
<text text-anchor="middle" x="331.0365" y="-250.3" font-family="Times,serif" font-size="14.00" fill="#000000">SAT</text>
</g>
<!-- I&#45;&gt;S -->
<g id="edge4" class="edge">
<title>I&#45;&gt;S</title>
<path fill="none" stroke="#000000" d="M410.617,-315.5642C395.035,-303.6077 373.8496,-287.3516 357.2551,-274.6182"/>
<polygon fill="#000000" stroke="#000000" points="359.1139,-271.6328 349.0496,-268.3219 354.8525,-277.1863 359.1139,-271.6328"/>
</g>
<!-- cpd_I -->
<g id="node7" class="node">
<title>cpd_I</title>
<polygon fill="none" stroke="#c0c0c0" points="385.0365,-260.5 385.0365,-273.5 480.0365,-273.5 480.0365,-260.5 385.0365,-260.5"/>
<text text-anchor="start" x="416.0175" y="-264.9" font-family="Times,serif" font-size="7.00" fill="#000000">Intelligence</text>
<polygon fill="none" stroke="#c0c0c0" points="385.0365,-247.5 385.0365,-260.5 392.0365,-260.5 392.0365,-247.5 385.0365,-247.5"/>
<polygon fill="none" stroke="#c0c0c0" points="392.0365,-247.5 392.0365,-260.5 430.0365,-260.5 430.0365,-247.5 392.0365,-247.5"/>
<text text-anchor="start" x="394.6081" y="-251.9" font-family="Times,serif" font-size="7.00" fill="#000000">Dumb (i_0)</text>
<polygon fill="none" stroke="#c0c0c0" points="430.0365,-247.5 430.0365,-260.5 480.0365,-260.5 480.0365,-247.5 430.0365,-247.5"/>
<text text-anchor="start" x="432.9735" y="-251.9" font-family="Times,serif" font-size="7.00" fill="#000000">Intelligent (i_1)</text>
<polygon fill="none" stroke="#c0c0c0" points="385.0365,-234.5 385.0365,-247.5 392.0365,-247.5 392.0365,-234.5 385.0365,-234.5"/>
<text text-anchor="start" x="387.5641" y="-238.9" font-family="Times,serif" font-size="7.00" fill="#000000">i</text>
<polygon fill="none" stroke="#c0c0c0" points="392.0365,-234.5 392.0365,-247.5 430.0365,-247.5 430.0365,-234.5 392.0365,-234.5"/>
<text text-anchor="start" x="406.6615" y="-238.9" font-family="Times,serif" font-size="7.00" fill="#000000">0.7</text>
<polygon fill="none" stroke="#c0c0c0" points="430.0365,-234.5 430.0365,-247.5 480.0365,-247.5 480.0365,-234.5 430.0365,-234.5"/>
<text text-anchor="start" x="450.6615" y="-238.9" font-family="Times,serif" font-size="7.00" fill="#000000">0.3</text>
</g>
<!-- I&#45;&gt;cpd_I -->
<!-- I&#45;&gt;cpd_I -->
<!-- cpd_L -->
<g id="node9" class="node">
<title>cpd_L</title>
<polygon fill="none" stroke="#c0c0c0" points="46.0365,-55.5 46.0365,-68.5 130.0365,-68.5 130.0365,-55.5 46.0365,-55.5"/>
<text text-anchor="start" x="79.6813" y="-59.9" font-family="Times,serif" font-size="7.00" fill="#000000">Letter</text>
<polygon fill="none" stroke="#c0c0c0" points="46.0365,-42.5 46.0365,-55.5 62.0365,-55.5 62.0365,-42.5 46.0365,-42.5"/>
<polygon fill="none" stroke="#c0c0c0" points="62.0365,-42.5 62.0365,-55.5 94.0365,-55.5 94.0365,-42.5 62.0365,-42.5"/>
<text text-anchor="start" x="64.7201" y="-46.9" font-family="Times,serif" font-size="7.00" fill="#000000">Bad (l_0)</text>
<polygon fill="none" stroke="#c0c0c0" points="94.0365,-42.5 94.0365,-55.5 130.0365,-55.5 130.0365,-42.5 94.0365,-42.5"/>
<text text-anchor="start" x="96.5805" y="-46.9" font-family="Times,serif" font-size="7.00" fill="#000000">Good (l_1)</text>
<polygon fill="none" stroke="#c0c0c0" points="46.0365,-29.5 46.0365,-42.5 62.0365,-42.5 62.0365,-29.5 46.0365,-29.5"/>
<text text-anchor="start" x="48.7865" y="-33.9" font-family="Times,serif" font-size="7.00" fill="#000000">g_0</text>
<polygon fill="none" stroke="#c0c0c0" points="62.0365,-29.5 62.0365,-42.5 94.0365,-42.5 94.0365,-29.5 62.0365,-29.5"/>
<text text-anchor="start" x="73.6615" y="-33.9" font-family="Times,serif" font-size="7.00" fill="#000000">0.1</text>
<polygon fill="none" stroke="#c0c0c0" points="94.0365,-29.5 94.0365,-42.5 130.0365,-42.5 130.0365,-29.5 94.0365,-29.5"/>
<text text-anchor="start" x="107.6615" y="-33.9" font-family="Times,serif" font-size="7.00" fill="#000000">0.9</text>
<polygon fill="none" stroke="#c0c0c0" points="46.0365,-16.5 46.0365,-29.5 62.0365,-29.5 62.0365,-16.5 46.0365,-16.5"/>
<text text-anchor="start" x="48.7865" y="-20.9" font-family="Times,serif" font-size="7.00" fill="#000000">g_1</text>
<polygon fill="none" stroke="#c0c0c0" points="62.0365,-16.5 62.0365,-29.5 94.0365,-29.5 94.0365,-16.5 62.0365,-16.5"/>
<text text-anchor="start" x="73.6615" y="-20.9" font-family="Times,serif" font-size="7.00" fill="#000000">0.4</text>
<polygon fill="none" stroke="#c0c0c0" points="94.0365,-16.5 94.0365,-29.5 130.0365,-29.5 130.0365,-16.5 94.0365,-16.5"/>
<text text-anchor="start" x="107.6615" y="-20.9" font-family="Times,serif" font-size="7.00" fill="#000000">0.6</text>
<polygon fill="none" stroke="#c0c0c0" points="46.0365,-3.5 46.0365,-16.5 62.0365,-16.5 62.0365,-3.5 46.0365,-3.5"/>
<text text-anchor="start" x="48.7865" y="-7.9" font-family="Times,serif" font-size="7.00" fill="#000000">g_2</text>
<polygon fill="none" stroke="#c0c0c0" points="62.0365,-3.5 62.0365,-16.5 94.0365,-16.5 94.0365,-3.5 62.0365,-3.5"/>
<text text-anchor="start" x="71.9115" y="-7.9" font-family="Times,serif" font-size="7.00" fill="#000000">0.99</text>
<polygon fill="none" stroke="#c0c0c0" points="94.0365,-3.5 94.0365,-16.5 130.0365,-16.5 130.0365,-3.5 94.0365,-3.5"/>
<text text-anchor="start" x="105.9115" y="-7.9" font-family="Times,serif" font-size="7.00" fill="#000000">0.01</text>
</g>
<!-- L&#45;&gt;cpd_L -->
<!-- L&#45;&gt;cpd_L -->
<!-- L&#45;&gt;cpd_L -->
<!-- cpd_S -->
<g id="node10" class="node">
<title>cpd_S</title>
<polygon fill="none" stroke="#c0c0c0" points="289.0365,-165 289.0365,-178 373.0365,-178 373.0365,-165 289.0365,-165"/>
<text text-anchor="start" x="324.8124" y="-169.4" font-family="Times,serif" font-size="7.00" fill="#000000">SAT</text>
<polygon fill="none" stroke="#c0c0c0" points="289.0365,-152 289.0365,-165 303.0365,-165 303.0365,-152 289.0365,-152"/>
<polygon fill="none" stroke="#c0c0c0" points="303.0365,-152 303.0365,-165 336.0365,-165 336.0365,-152 303.0365,-152"/>
<text text-anchor="start" x="305.8305" y="-156.4" font-family="Times,serif" font-size="7.00" fill="#000000">Bad (s_0)</text>
<polygon fill="none" stroke="#c0c0c0" points="336.0365,-152 336.0365,-165 373.0365,-165 373.0365,-152 336.0365,-152"/>
<text text-anchor="start" x="338.6908" y="-156.4" font-family="Times,serif" font-size="7.00" fill="#000000">Good (s_1)</text>
<polygon fill="none" stroke="#c0c0c0" points="289.0365,-139 289.0365,-152 303.0365,-152 303.0365,-139 289.0365,-139"/>
<text text-anchor="start" x="291.5641" y="-143.4" font-family="Times,serif" font-size="7.00" fill="#000000">i_0</text>
<polygon fill="none" stroke="#c0c0c0" points="303.0365,-139 303.0365,-152 336.0365,-152 336.0365,-139 303.0365,-139"/>
<text text-anchor="start" x="313.4115" y="-143.4" font-family="Times,serif" font-size="7.00" fill="#000000">0.95</text>
<polygon fill="none" stroke="#c0c0c0" points="336.0365,-139 336.0365,-152 373.0365,-152 373.0365,-139 336.0365,-139"/>
<text text-anchor="start" x="348.4115" y="-143.4" font-family="Times,serif" font-size="7.00" fill="#000000">0.05</text>
<polygon fill="none" stroke="#c0c0c0" points="289.0365,-126 289.0365,-139 303.0365,-139 303.0365,-126 289.0365,-126"/>
<text text-anchor="start" x="291.5641" y="-130.4" font-family="Times,serif" font-size="7.00" fill="#000000">i_1</text>
<polygon fill="none" stroke="#c0c0c0" points="303.0365,-126 303.0365,-139 336.0365,-139 336.0365,-126 303.0365,-126"/>
<text text-anchor="start" x="315.1615" y="-130.4" font-family="Times,serif" font-size="7.00" fill="#000000">0.2</text>
<polygon fill="none" stroke="#c0c0c0" points="336.0365,-126 336.0365,-139 373.0365,-139 373.0365,-126 336.0365,-126"/>
<text text-anchor="start" x="350.1615" y="-130.4" font-family="Times,serif" font-size="7.00" fill="#000000">0.8</text>
</g>
<!-- S&#45;&gt;cpd_S -->
<!-- S&#45;&gt;cpd_S -->
<!-- S&#45;&gt;cpd_S -->
<!-- cpd_D&#45;&gt;D -->
<!-- cpd_D&#45;&gt;D -->
<!-- cpd_D&#45;&gt;D -->
<!-- cpd_D&#45;&gt;D -->
<!-- cpd_D&#45;&gt;D -->
<!-- cpd_D&#45;&gt;D -->
<!-- cpd_D&#45;&gt;D -->
<!-- cpd_D&#45;&gt;D -->
<!-- cpd_D&#45;&gt;D -->
<!-- cpd_D&#45;&gt;D -->
<!-- cpd_D&#45;&gt;D -->
<!-- cpd_D&#45;&gt;D -->
<!-- cpd_I&#45;&gt;I -->
<!-- cpd_I&#45;&gt;I -->
<!-- cpd_I&#45;&gt;I -->
<!-- cpd_I&#45;&gt;I -->
<!-- cpd_I&#45;&gt;I -->
<!-- cpd_I&#45;&gt;I -->
<!-- cpd_I&#45;&gt;I -->
<!-- cpd_I&#45;&gt;I -->
<!-- cpd_I&#45;&gt;I -->
<!-- cpd_I&#45;&gt;I -->
<!-- cpd_I&#45;&gt;I -->
<!-- cpd_I&#45;&gt;I -->
<!-- cpd_G&#45;&gt;G -->
<!-- cpd_G&#45;&gt;G -->
<!-- cpd_G&#45;&gt;G -->
<!-- cpd_G&#45;&gt;G -->
<!-- cpd_G&#45;&gt;G -->
<!-- cpd_G&#45;&gt;G -->
<!-- cpd_G&#45;&gt;G -->
<!-- cpd_G&#45;&gt;G -->
<!-- cpd_G&#45;&gt;G -->
<!-- cpd_G&#45;&gt;G -->
<!-- cpd_G&#45;&gt;G -->
<!-- cpd_G&#45;&gt;G -->
<!-- cpd_L&#45;&gt;L -->
<!-- cpd_L&#45;&gt;L -->
<!-- cpd_L&#45;&gt;L -->
<!-- cpd_L&#45;&gt;L -->
<!-- cpd_L&#45;&gt;L -->
<!-- cpd_L&#45;&gt;L -->
<!-- cpd_L&#45;&gt;L -->
<!-- cpd_L&#45;&gt;L -->
<!-- cpd_L&#45;&gt;L -->
<!-- cpd_L&#45;&gt;L -->
<!-- cpd_L&#45;&gt;L -->
<!-- cpd_S&#45;&gt;S -->
<!-- cpd_S&#45;&gt;S -->
<!-- cpd_S&#45;&gt;S -->
<!-- cpd_S&#45;&gt;S -->
<!-- cpd_S&#45;&gt;S -->
<!-- cpd_S&#45;&gt;S -->
<!-- cpd_S&#45;&gt;S -->
<!-- cpd_S&#45;&gt;S -->
<!-- cpd_S&#45;&gt;S -->
<!-- cpd_S&#45;&gt;S -->
<!-- cpd_S&#45;&gt;S -->
</g>
</svg>
