<?xml version="1.0" encoding="UTF-8" standalone="no"?>
<!DOCTYPE svg PUBLIC "-//W3C//DTD SVG 1.1//EN"
 "http://www.w3.org/Graphics/SVG/1.1/DTD/svg11.dtd">
<!-- Generated by graphviz version 2.40.1 (20161225.0304)
 -->
<!-- Title: G Pages: 1 -->
<svg width="453pt" height="382pt"
 viewBox="0.00 0.00 453.00 382.00" xmlns="http://www.w3.org/2000/svg" xmlns:xlink="http://www.w3.org/1999/xlink">
<g id="graph0" class="graph" transform="scale(1 1) rotate(0) translate(4 378)">
<title>G</title>
<polygon fill="#ffffff" stroke="transparent" points="-4,4 -4,-378 449,-378 449,4 -4,4"/>
<!-- D -->
<g id="node1" class="node">
<title>D</title>
<ellipse fill="none" stroke="#c0c0c0" cx="48.5" cy="-331" rx="44.4923" ry="18"/>
<text text-anchor="middle" x="48.5" y="-326.8" font-family="Times,serif" font-size="14.00" fill="#000000">Difficulty</text>
</g>
<!-- G -->
<g id="node2" class="node">
<title>G</title>
<ellipse fill="none" stroke="#c0c0c0" cx="173.5" cy="-228.5" rx="31.9219" ry="18"/>
<text text-anchor="middle" x="173.5" y="-224.3" font-family="Times,serif" font-size="14.00" fill="#000000">Grade</text>
</g>
<!-- D&#45;&gt;G -->
<g id="edge1" class="edge">
<title>D&#45;&gt;G</title>
<path fill="none" stroke="#000000" d="M68.3066,-314.7586C89.7366,-297.186 123.9941,-269.0948 147.5588,-249.7718"/>
<polygon fill="#000000" stroke="#000000" points="149.8961,-252.3815 155.4095,-243.3342 145.4575,-246.9686 149.8961,-252.3815"/>
</g>
<!-- cpd_D -->
<g id="node6" class="node">
<title>cpd_D</title>
<polygon fill="none" stroke="#c0c0c0" points="8.5,-234.5 8.5,-247.5 89.5,-247.5 89.5,-234.5 8.5,-234.5"/>
<text text-anchor="start" x="35.3896" y="-238.9" font-family="Times,serif" font-size="7.00" fill="#000000">Difficulty</text>
<polygon fill="none" stroke="#c0c0c0" points="8.5,-221.5 8.5,-234.5 17.5,-234.5 17.5,-221.5 8.5,-221.5"/>
<polygon fill="none" stroke="#c0c0c0" points="17.5,-221.5 17.5,-234.5 53.5,-234.5 53.5,-221.5 17.5,-221.5"/>
<text text-anchor="start" x="20.2405" y="-225.9" font-family="Times,serif" font-size="7.00" fill="#000000">Easy (d_0)</text>
<polygon fill="none" stroke="#c0c0c0" points="53.5,-221.5 53.5,-234.5 89.5,-234.5 89.5,-221.5 53.5,-221.5"/>
<text text-anchor="start" x="56.0474" y="-225.9" font-family="Times,serif" font-size="7.00" fill="#000000">Hard (d_1)</text>
<polygon fill="none" stroke="#c0c0c0" points="8.5,-208.5 8.5,-221.5 17.5,-221.5 17.5,-208.5 8.5,-208.5"/>
<text text-anchor="start" x="11.25" y="-212.9" font-family="Times,serif" font-size="7.00" fill="#000000">d</text>
<polygon fill="none" stroke="#c0c0c0" points="17.5,-208.5 17.5,-221.5 53.5,-221.5 53.5,-208.5 17.5,-208.5"/>
<text text-anchor="start" x="31.125" y="-212.9" font-family="Times,serif" font-size="7.00" fill="#000000">0.4</text>
<polygon fill="none" stroke="#c0c0c0" points="53.5,-208.5 53.5,-221.5 89.5,-221.5 89.5,-208.5 53.5,-208.5"/>
<text text-anchor="start" x="67.125" y="-212.9" font-family="Times,serif" font-size="7.00" fill="#000000">0.6</text>
</g>
<!-- D&#45;&gt;cpd_D -->
<!-- L -->
<g id="node4" class="node">
<title>L</title>
<ellipse fill="none" stroke="#c0c0c0" cx="173.5" cy="-139" rx="31.4375" ry="18"/>
<text text-anchor="middle" x="173.5" y="-134.8" font-family="Times,serif" font-size="14.00" fill="#000000">Letter</text>
</g>
<!-- G&#45;&gt;L -->
<g id="edge3" class="edge">
<title>G&#45;&gt;L</title>
<path fill="none" stroke="#000000" d="M173.5,-210.3883C173.5,-198.0146 173.5,-181.3686 173.5,-167.2632"/>
<polygon fill="#000000" stroke="#000000" points="177.0001,-167.0847 173.5,-157.0847 170.0001,-167.0848 177.0001,-167.0847"/>
</g>
<!-- I -->
<g id="node3" class="node">
<title>I</title>
<ellipse fill="none" stroke="#c0c0c0" cx="305.5" cy="-331" rx="51.6916" ry="18"/>
<text text-anchor="middle" x="305.5" y="-326.8" font-family="Times,serif" font-size="14.00" fill="#000000">Intelligence</text>
</g>
<!-- I&#45;&gt;G -->
<g id="edge2" class="edge">
<title>I&#45;&gt;G</title>
<path fill="none" stroke="#000000" d="M284.2919,-314.5316C261.5063,-296.8382 225.2346,-268.6727 200.4443,-249.4226"/>
<polygon fill="#000000" stroke="#000000" points="202.5584,-246.633 192.5134,-243.2642 198.2651,-252.1618 202.5584,-246.633"/>
</g>
<!-- S -->
<g id="node5" class="node">
<title>S</title>
<ellipse fill="none" stroke="#c0c0c0" cx="288.5" cy="-228.5" rx="27" ry="18"/>
<text text-anchor="middle" x="288.5" y="-224.3" font-family="Times,serif" font-size="14.00" fill="#000000">SAT</text>
</g>
<!-- I&#45;&gt;S -->
<g id="edge4" class="edge">
<title>I&#45;&gt;S</title>
<path fill="none" stroke="#000000" d="M302.4607,-312.6751C299.8741,-297.079 296.1174,-274.4284 293.1524,-256.5512"/>
<polygon fill="#000000" stroke="#000000" points="296.602,-255.9588 291.5129,-246.6663 289.6964,-257.1042 296.602,-255.9588"/>
</g>
<!-- cpd_I -->
<g id="node7" class="node">
<title>cpd_I</title>
<polygon fill="none" stroke="#c0c0c0" points="342.5,-234.5 342.5,-247.5 437.5,-247.5 437.5,-234.5 342.5,-234.5"/>
<text text-anchor="start" x="373.481" y="-238.9" font-family="Times,serif" font-size="7.00" fill="#000000">Intelligence</text>
<polygon fill="none" stroke="#c0c0c0" points="342.5,-221.5 342.5,-234.5 349.5,-234.5 349.5,-221.5 342.5,-221.5"/>
<polygon fill="none" stroke="#c0c0c0" points="349.5,-221.5 349.5,-234.5 387.5,-234.5 387.5,-221.5 349.5,-221.5"/>
<text text-anchor="start" x="352.0715" y="-225.9" font-family="Times,serif" font-size="7.00" fill="#000000">Dumb (i_0)</text>
<polygon fill="none" stroke="#c0c0c0" points="387.5,-221.5 387.5,-234.5 437.5,-234.5 437.5,-221.5 387.5,-221.5"/>
<text text-anchor="start" x="390.437" y="-225.9" font-family="Times,serif" font-size="7.00" fill="#000000">Intelligent (i_1)</text>
<polygon fill="none" stroke="#c0c0c0" points="342.5,-208.5 342.5,-221.5 349.5,-221.5 349.5,-208.5 342.5,-208.5"/>
<text text-anchor="start" x="345.0276" y="-212.9" font-family="Times,serif" font-size="7.00" fill="#000000">i</text>
<polygon fill="none" stroke="#c0c0c0" points="349.5,-208.5 349.5,-221.5 387.5,-221.5 387.5,-208.5 349.5,-208.5"/>
<text text-anchor="start" x="364.125" y="-212.9" font-family="Times,serif" font-size="7.00" fill="#000000">0.7</text>
<polygon fill="none" stroke="#c0c0c0" points="387.5,-208.5 387.5,-221.5 437.5,-221.5 437.5,-208.5 387.5,-208.5"/>
<text text-anchor="start" x="408.125" y="-212.9" font-family="Times,serif" font-size="7.00" fill="#000000">0.3</text>
</g>
<!-- I&#45;&gt;cpd_I -->
<!-- cpd_L -->
<g id="node9" class="node">
<title>cpd_L</title>
<polygon fill="none" stroke="#c0c0c0" points="131.5,-55.5 131.5,-68.5 215.5,-68.5 215.5,-55.5 131.5,-55.5"/>
<text text-anchor="start" x="165.1448" y="-59.9" font-family="Times,serif" font-size="7.00" fill="#000000">Letter</text>
<polygon fill="none" stroke="#c0c0c0" points="131.5,-42.5 131.5,-55.5 147.5,-55.5 147.5,-42.5 131.5,-42.5"/>
<polygon fill="none" stroke="#c0c0c0" points="147.5,-42.5 147.5,-55.5 179.5,-55.5 179.5,-42.5 147.5,-42.5"/>
<text text-anchor="start" x="150.1836" y="-46.9" font-family="Times,serif" font-size="7.00" fill="#000000">Bad (l_0)</text>
<polygon fill="none" stroke="#c0c0c0" points="179.5,-42.5 179.5,-55.5 215.5,-55.5 215.5,-42.5 179.5,-42.5"/>
<text text-anchor="start" x="182.0439" y="-46.9" font-family="Times,serif" font-size="7.00" fill="#000000">Good (l_1)</text>
<polygon fill="none" stroke="#c0c0c0" points="131.5,-29.5 131.5,-42.5 147.5,-42.5 147.5,-29.5 131.5,-29.5"/>
<text text-anchor="start" x="134.25" y="-33.9" font-family="Times,serif" font-size="7.00" fill="#000000">g_0</text>
<polygon fill="none" stroke="#c0c0c0" points="147.5,-29.5 147.5,-42.5 179.5,-42.5 179.5,-29.5 147.5,-29.5"/>
<text text-anchor="start" x="159.125" y="-33.9" font-family="Times,serif" font-size="7.00" fill="#000000">0.1</text>
<polygon fill="none" stroke="#c0c0c0" points="179.5,-29.5 179.5,-42.5 215.5,-42.5 215.5,-29.5 179.5,-29.5"/>
<text text-anchor="start" x="193.125" y="-33.9" font-family="Times,serif" font-size="7.00" fill="#000000">0.9</text>
<polygon fill="none" stroke="#c0c0c0" points="131.5,-16.5 131.5,-29.5 147.5,-29.5 147.5,-16.5 131.5,-16.5"/>
<text text-anchor="start" x="134.25" y="-20.9" font-family="Times,serif" font-size="7.00" fill="#000000">g_1</text>
<polygon fill="none" stroke="#c0c0c0" points="147.5,-16.5 147.5,-29.5 179.5,-29.5 179.5,-16.5 147.5,-16.5"/>
<text text-anchor="start" x="159.125" y="-20.9" font-family="Times,serif" font-size="7.00" fill="#000000">0.4</text>
<polygon fill="none" stroke="#c0c0c0" points="179.5,-16.5 179.5,-29.5 215.5,-29.5 215.5,-16.5 179.5,-16.5"/>
<text text-anchor="start" x="193.125" y="-20.9" font-family="Times,serif" font-size="7.00" fill="#000000">0.6</text>
<polygon fill="none" stroke="#c0c0c0" points="131.5,-3.5 131.5,-16.5 147.5,-16.5 147.5,-3.5 131.5,-3.5"/>
<text text-anchor="start" x="134.25" y="-7.9" font-family="Times,serif" font-size="7.00" fill="#000000">g_2</text>
<polygon fill="none" stroke="#c0c0c0" points="147.5,-3.5 147.5,-16.5 179.5,-16.5 179.5,-3.5 147.5,-3.5"/>
<text text-anchor="start" x="157.375" y="-7.9" font-family="Times,serif" font-size="7.00" fill="#000000">0.99</text>
<polygon fill="none" stroke="#c0c0c0" points="179.5,-3.5 179.5,-16.5 215.5,-16.5 215.5,-3.5 179.5,-3.5"/>
<text text-anchor="start" x="191.375" y="-7.9" font-family="Times,serif" font-size="7.00" fill="#000000">0.01</text>
</g>
<!-- L&#45;&gt;cpd_L -->
<!-- cpd_S -->
<g id="node10" class="node">
<title>cpd_S</title>
<polygon fill="none" stroke="#c0c0c0" points="246.5,-152 246.5,-165 330.5,-165 330.5,-152 246.5,-152"/>
<text text-anchor="start" x="282.2759" y="-156.4" font-family="Times,serif" font-size="7.00" fill="#000000">SAT</text>
<polygon fill="none" stroke="#c0c0c0" points="246.5,-139 246.5,-152 260.5,-152 260.5,-139 246.5,-139"/>
<polygon fill="none" stroke="#c0c0c0" points="260.5,-139 260.5,-152 293.5,-152 293.5,-139 260.5,-139"/>
<text text-anchor="start" x="263.2939" y="-143.4" font-family="Times,serif" font-size="7.00" fill="#000000">Bad (s_0)</text>
<polygon fill="none" stroke="#c0c0c0" points="293.5,-139 293.5,-152 330.5,-152 330.5,-139 293.5,-139"/>
<text text-anchor="start" x="296.1543" y="-143.4" font-family="Times,serif" font-size="7.00" fill="#000000">Good (s_1)</text>
<polygon fill="none" stroke="#c0c0c0" points="246.5,-126 246.5,-139 260.5,-139 260.5,-126 246.5,-126"/>
<text text-anchor="start" x="249.0276" y="-130.4" font-family="Times,serif" font-size="7.00" fill="#000000">i_0</text>
<polygon fill="none" stroke="#c0c0c0" points="260.5,-126 260.5,-139 293.5,-139 293.5,-126 260.5,-126"/>
<text text-anchor="start" x="270.875" y="-130.4" font-family="Times,serif" font-size="7.00" fill="#000000">0.95</text>
<polygon fill="none" stroke="#c0c0c0" points="293.5,-126 293.5,-139 330.5,-139 330.5,-126 293.5,-126"/>
<text text-anchor="start" x="305.875" y="-130.4" font-family="Times,serif" font-size="7.00" fill="#000000">0.05</text>
<polygon fill="none" stroke="#c0c0c0" points="246.5,-113 246.5,-126 260.5,-126 260.5,-113 246.5,-113"/>
<text text-anchor="start" x="249.0276" y="-117.4" font-family="Times,serif" font-size="7.00" fill="#000000">i_1</text>
<polygon fill="none" stroke="#c0c0c0" points="260.5,-113 260.5,-126 293.5,-126 293.5,-113 260.5,-113"/>
<text text-anchor="start" x="272.625" y="-117.4" font-family="Times,serif" font-size="7.00" fill="#000000">0.2</text>
<polygon fill="none" stroke="#c0c0c0" points="293.5,-113 293.5,-126 330.5,-126 330.5,-113 293.5,-113"/>
<text text-anchor="start" x="307.625" y="-117.4" font-family="Times,serif" font-size="7.00" fill="#000000">0.8</text>
</g>
<!-- S&#45;&gt;cpd_S -->
<!-- cpd_G -->
<g id="node8" class="node">
<title>cpd_G</title>
<polygon fill="none" stroke="#c0c0c0" points="119.5,-357 119.5,-370 228.5,-370 228.5,-357 119.5,-357"/>
<text text-anchor="start" x="165.45" y="-361.4" font-family="Times,serif" font-size="7.00" fill="#000000">Grade</text>
<polygon fill="none" stroke="#c0c0c0" points="119.5,-344 119.5,-357 147.5,-357 147.5,-344 119.5,-344"/>
<polygon fill="none" stroke="#c0c0c0" points="147.5,-344 147.5,-357 174.5,-357 174.5,-344 147.5,-344"/>
<text text-anchor="start" x="150.2078" y="-348.4" font-family="Times,serif" font-size="7.00" fill="#000000">A (g_0)</text>
<polygon fill="none" stroke="#c0c0c0" points="174.5,-344 174.5,-357 201.5,-357 201.5,-344 174.5,-344"/>
<text text-anchor="start" x="177.2095" y="-348.4" font-family="Times,serif" font-size="7.00" fill="#000000">B (g_1)</text>
<polygon fill="none" stroke="#c0c0c0" points="201.5,-344 201.5,-357 228.5,-357 228.5,-344 201.5,-344"/>
<text text-anchor="start" x="204.2095" y="-348.4" font-family="Times,serif" font-size="7.00" fill="#000000">C (g_2)</text>
<polygon fill="none" stroke="#c0c0c0" points="119.5,-331 119.5,-344 147.5,-344 147.5,-331 119.5,-331"/>
<text text-anchor="start" x="122.0276" y="-335.4" font-family="Times,serif" font-size="7.00" fill="#000000">i_0, d_0</text>
<polygon fill="none" stroke="#c0c0c0" points="147.5,-331 147.5,-344 174.5,-344 174.5,-331 147.5,-331"/>
<text text-anchor="start" x="156.625" y="-335.4" font-family="Times,serif" font-size="7.00" fill="#000000">0.3</text>
<polygon fill="none" stroke="#c0c0c0" points="174.5,-331 174.5,-344 201.5,-344 201.5,-331 174.5,-331"/>
<text text-anchor="start" x="183.625" y="-335.4" font-family="Times,serif" font-size="7.00" fill="#000000">0.4</text>
<polygon fill="none" stroke="#c0c0c0" points="201.5,-331 201.5,-344 228.5,-344 228.5,-331 201.5,-331"/>
<text text-anchor="start" x="210.625" y="-335.4" font-family="Times,serif" font-size="7.00" fill="#000000">0.3</text>
<polygon fill="none" stroke="#c0c0c0" points="119.5,-318 119.5,-331 147.5,-331 147.5,-318 119.5,-318"/>
<text text-anchor="start" x="122.0276" y="-322.4" font-family="Times,serif" font-size="7.00" fill="#000000">i_0, d_1</text>
<polygon fill="none" stroke="#c0c0c0" points="147.5,-318 147.5,-331 174.5,-331 174.5,-318 147.5,-318"/>
<text text-anchor="start" x="154.875" y="-322.4" font-family="Times,serif" font-size="7.00" fill="#000000">0.05</text>
<polygon fill="none" stroke="#c0c0c0" points="174.5,-318 174.5,-331 201.5,-331 201.5,-318 174.5,-318"/>
<text text-anchor="start" x="181.875" y="-322.4" font-family="Times,serif" font-size="7.00" fill="#000000">0.25</text>
<polygon fill="none" stroke="#c0c0c0" points="201.5,-318 201.5,-331 228.5,-331 228.5,-318 201.5,-318"/>
<text text-anchor="start" x="210.625" y="-322.4" font-family="Times,serif" font-size="7.00" fill="#000000">0.7</text>
<polygon fill="none" stroke="#c0c0c0" points="119.5,-305 119.5,-318 147.5,-318 147.5,-305 119.5,-305"/>
<text text-anchor="start" x="122.0276" y="-309.4" font-family="Times,serif" font-size="7.00" fill="#000000">i_1, d_0</text>
<polygon fill="none" stroke="#c0c0c0" points="147.5,-305 147.5,-318 174.5,-318 174.5,-305 147.5,-305"/>
<text text-anchor="start" x="156.625" y="-309.4" font-family="Times,serif" font-size="7.00" fill="#000000">0.9</text>
<polygon fill="none" stroke="#c0c0c0" points="174.5,-305 174.5,-318 201.5,-318 201.5,-305 174.5,-305"/>
<text text-anchor="start" x="181.875" y="-309.4" font-family="Times,serif" font-size="7.00" fill="#000000">0.08</text>
<polygon fill="none" stroke="#c0c0c0" points="201.5,-305 201.5,-318 228.5,-318 228.5,-305 201.5,-305"/>
<text text-anchor="start" x="208.875" y="-309.4" font-family="Times,serif" font-size="7.00" fill="#000000">0.02</text>
<polygon fill="none" stroke="#c0c0c0" points="119.5,-292 119.5,-305 147.5,-305 147.5,-292 119.5,-292"/>
<text text-anchor="start" x="122.0276" y="-296.4" font-family="Times,serif" font-size="7.00" fill="#000000">i_1, d_1</text>
<polygon fill="none" stroke="#c0c0c0" points="147.5,-292 147.5,-305 174.5,-305 174.5,-292 147.5,-292"/>
<text text-anchor="start" x="156.625" y="-296.4" font-family="Times,serif" font-size="7.00" fill="#000000">0.5</text>
<polygon fill="none" stroke="#c0c0c0" points="174.5,-292 174.5,-305 201.5,-305 201.5,-292 174.5,-292"/>
<text text-anchor="start" x="183.625" y="-296.4" font-family="Times,serif" font-size="7.00" fill="#000000">0.3</text>
<polygon fill="none" stroke="#c0c0c0" points="201.5,-292 201.5,-305 228.5,-305 228.5,-292 201.5,-292"/>
<text text-anchor="start" x="210.625" y="-296.4" font-family="Times,serif" font-size="7.00" fill="#000000">0.2</text>
</g>
<!-- cpd_G&#45;&gt;G -->
</g>
</svg>
